# Blender 3.4.1
# www.blender.org
o Napinha-Tampa
v 0.347479 -200.000000 17.002941
v 19.950909 -199.036957 17.002941
v 39.365551 -196.157043 17.002941
v 58.404415 -191.388077 17.002941
v 76.884171 -184.775909 17.002943
v 94.626831 -176.384262 17.002943
v 111.461548 -166.293915 17.002943
v 127.226151 -154.602112 17.002943
v 141.768845 -141.421371 17.002945
v 154.949600 -126.878670 17.002945
v 166.641418 -111.114052 17.002947
v 176.731750 -94.279358 17.002947
v 185.123413 -76.536682 17.002947
v 191.735580 -58.056927 17.002947
v 196.504562 -39.018074 17.002949
v 199.384460 -19.603426 17.002949
v 200.347488 0.000010 17.002951
v 199.384460 19.603422 17.002953
v 196.504562 39.018066 17.002953
v 191.735565 58.056946 17.002954
v 185.123413 76.536682 17.002954
v 176.731750 94.279327 17.002954
v 166.641418 111.114052 17.002954
v 154.949600 126.878670 17.002956
v 141.768845 141.421371 17.002956
v 127.226151 154.602112 17.002958
v 111.461533 166.293945 17.002958
v 94.626854 176.384247 17.002958
v 76.884186 184.775909 17.002958
v 58.404427 191.388077 17.002960
v 39.365543 196.157074 17.002960
v 19.950901 199.036957 17.002960
v 0.347462 200.000000 17.002960
v -19.255928 199.036957 17.002960
v -38.670574 196.157074 17.002960
v -57.709457 191.388077 17.002960
v -76.189217 184.775909 17.002958
v -93.931892 176.384247 17.002958
v -110.766586 166.293915 17.002958
v -126.531174 154.602112 17.002958
v -141.073868 141.421371 17.002956
v -154.254608 126.878670 17.002956
v -165.946442 111.114082 17.002954
v -176.036804 94.279335 17.002954
v -184.428436 76.536713 17.002954
v -191.040619 58.056915 17.002954
v -195.809586 39.018078 17.002953
v -198.689468 19.603390 17.002953
v -199.652527 -0.000001 17.002951
v -198.689468 -19.603392 17.002949
v -195.809586 -39.018085 17.002949
v -191.040619 -58.056915 17.002947
v -184.428436 -76.536720 17.002947
v -176.036804 -94.279343 17.002947
v -165.946487 -111.114014 17.002947
v -154.254608 -126.878670 17.002945
v -141.073914 -141.421341 17.002945
v -126.531158 -154.602112 17.002943
v -110.766586 -166.293915 17.002943
v -93.931839 -176.384277 17.002943
v -76.189217 -184.775909 17.002943
v -57.709496 -191.388062 17.002941
v -38.670570 -196.157074 17.002941
v -19.255972 -199.036957 17.002941
v 16.574188 -162.527222 17.002943
v 2.165482 -163.464111 17.002943
v 32.426514 -160.154099 17.002943
v 47.969894 -156.238617 17.002943
v 63.054649 -150.818481 17.002945
v 77.535477 -143.945877 17.002945
v 91.272972 -135.686966 17.002945
v 104.134789 -126.121368 17.002945
v 115.997063 -115.341125 17.002947
v 126.745621 -103.450073 17.002947
v 136.276855 -90.562752 17.002947
v 144.499008 -76.803268 17.002947
v 151.332916 -62.304108 17.002947
v 156.712753 -47.204937 17.002949
v 160.586700 -31.651169 17.002949
v 162.917465 -15.792558 17.002951
v 163.682587 0.218133 17.002951
v 162.874725 16.226702 17.002951
v 160.501602 32.079021 17.002953
v 156.586105 47.622425 17.002953
v 151.165985 62.707157 17.002954
v 144.293396 77.187988 17.002954
v 136.034485 90.925476 17.002954
v 126.468864 103.787292 17.002954
v 115.688614 115.649582 17.002954
v 103.797569 126.398125 17.002956
v 90.910225 135.929367 17.002956
v 77.150764 144.151489 17.002956
v 62.651604 150.985428 17.002956
v 47.552429 156.365265 17.002958
v 31.998652 160.239227 17.002958
v 16.140041 162.569977 17.002958
v 0.129340 163.335098 17.002958
v -15.879217 162.527222 17.002958
v -31.731543 160.154099 17.002958
v -47.274921 156.238617 17.002958
v -62.359684 150.818481 17.002956
v -76.840538 143.945862 17.002956
v -90.578041 135.686966 17.002956
v -103.439804 126.121376 17.002956
v -115.302101 115.341125 17.002954
v -126.050652 103.450081 17.002954
v -135.581863 90.562782 17.002954
v -143.804047 76.803246 17.002954
v -150.637955 62.304150 17.002954
v -156.017792 47.204926 17.002953
v -159.891739 31.651175 17.002953
v -162.222504 15.792523 17.002951
v -162.987625 -0.218126 17.002951
v -162.179749 -16.226675 17.002951
v -159.806625 -32.079048 17.002949
v -155.891144 -47.622383 17.002949
v -150.471008 -62.707199 17.002947
v -143.598419 -77.187988 17.002947
v -135.339539 -90.925453 17.002947
v -125.773880 -103.787315 17.002947
v -114.993668 -115.649582 17.002947
v -103.102577 -126.398148 17.002945
v -90.215302 -135.929352 17.002945
v -76.455757 -144.151520 17.002945
v -61.956638 -150.985428 17.002945
v -46.857502 -156.365250 17.002943
v -32.898460 -160.057907 17.002943
v -15.450193 -162.622269 17.002943
v 45.833893 17.539455 17.002953
v 1.664998 -17.547934 17.002949
v 23.644012 -0.087995 17.002951
v -43.177521 17.539455 17.002953
v -43.177521 -17.547934 17.002949
v -43.177521 -0.087995 17.002951
v -78.447754 17.638258 17.002953
v -77.335365 23.528223 17.002953
v -74.653824 31.054317 17.002953
v -71.247520 38.281281 17.002953
v -67.149231 45.139622 17.002953
v -62.398468 51.563198 17.002954
v -57.040932 57.490200 17.002954
v -51.128262 62.863541 17.002954
v -44.717400 67.631439 17.002954
v -37.870049 71.748024 17.002954
v -30.652178 75.173630 17.002954
v -23.133297 77.875259 17.002954
v -15.385816 79.826889 17.002954
v -7.484341 81.009758 17.002954
v 0.495005 81.412437 17.002954
v 8.475420 81.031067 17.002954
v 16.380022 79.869316 17.002954
v 24.132689 77.938370 17.002954
v 31.658762 75.256836 17.002954
v 38.885757 71.850517 17.002954
v 45.744064 67.752258 17.002954
v 52.167656 63.001488 17.002954
v 58.094658 57.643951 17.002954
v 63.467991 51.731281 17.002954
v 68.235901 45.320404 17.002953
v 72.352493 38.473053 17.002953
v 75.778084 31.255192 17.002953
v 78.479698 23.736324 17.002953
v 79.612808 17.638258 17.002953
v -113.556900 17.638258 17.002953
v -109.565010 33.429283 17.002953
v -105.757629 44.070187 17.002953
v -100.925613 54.286610 17.002954
v -95.115456 63.980274 17.002954
v -88.383171 73.057724 17.002954
v -80.793533 81.431587 17.002954
v -72.419670 89.021225 17.002954
v -63.342220 95.753502 17.002954
v -53.648579 101.563644 17.002954
v -43.432129 106.395653 17.002954
v -32.791252 110.203026 17.002954
v -21.828434 112.949074 17.002954
v -10.649237 114.607346 17.002954
v 0.638642 115.161880 17.002954
v 11.926545 114.607346 17.002954
v 23.105740 112.949074 17.002954
v 34.068569 110.203026 17.002954
v 44.709442 106.395653 17.002954
v 54.925896 101.563644 17.002954
v 64.619507 95.753517 17.002954
v 73.696968 89.021210 17.002954
v 82.070847 81.431580 17.002954
v 89.660477 73.057709 17.002954
v 96.392784 63.980247 17.002954
v 102.202919 54.286598 17.002954
v 107.034943 44.070168 17.002953
v 110.842300 33.429302 17.002953
v 114.834213 17.638258 17.002953
v -77.891563 20.583242 17.002953
v -111.904991 25.533772 17.002953
v 79.046265 20.687292 17.002953
v 113.182297 25.533781 17.002953
v -96.732063 -62.926628 17.002947
v -100.204887 -62.584583 17.002947
v -103.544258 -61.571606 17.002947
v -106.621841 -59.926594 17.002947
v -109.319366 -57.712791 17.002947
v -111.533165 -55.015278 17.002947
v -113.178169 -51.937695 17.002947
v -114.191147 -48.598320 17.002949
v -114.533195 -45.125496 17.002949
v -114.191147 -41.652668 17.002949
v -113.178169 -38.313293 17.002949
v -111.533165 -35.235714 17.002949
v -109.319366 -32.538193 17.002949
v -106.621841 -30.324390 17.002949
v -103.544258 -28.679388 17.002949
v -100.204887 -27.666401 17.002949
v -96.732063 -27.324360 17.002949
v -93.259232 -27.666401 17.002949
v -89.919868 -28.679388 17.002949
v -86.842278 -30.324396 17.002949
v -84.144753 -32.538193 17.002949
v -81.930962 -35.235710 17.002949
v -80.285957 -38.313293 17.002949
v -79.272972 -41.652668 17.002949
v -78.930923 -45.125496 17.002949
v -79.272972 -48.598324 17.002949
v -80.285957 -51.937695 17.002947
v -81.930962 -55.015278 17.002947
v -84.144753 -57.712791 17.002947
v -86.842278 -59.926594 17.002947
v -89.919868 -61.571606 17.002947
v -93.259232 -62.584583 17.002947
v 97.578461 -62.926628 17.002947
v 94.105629 -62.584583 17.002947
v 90.766258 -61.571606 17.002947
v 87.688675 -59.926594 17.002947
v 84.991158 -57.712791 17.002947
v 82.777359 -55.015278 17.002947
v 81.132355 -51.937695 17.002947
v 80.119362 -48.598320 17.002949
v 79.777321 -45.125496 17.002949
v 80.119362 -41.652668 17.002949
v 81.132355 -38.313293 17.002949
v 82.777359 -35.235714 17.002949
v 84.991158 -32.538193 17.002949
v 87.688675 -30.324390 17.002949
v 90.766258 -28.679388 17.002949
v 94.105629 -27.666401 17.002949
v 97.578461 -27.324360 17.002949
v 101.051292 -27.666401 17.002949
v 104.390678 -28.679388 17.002949
v 107.468262 -30.324396 17.002949
v 110.165771 -32.538193 17.002949
v 112.379562 -35.235710 17.002949
v 114.024582 -38.313293 17.002949
v 115.037552 -41.652668 17.002949
v 115.379608 -45.125496 17.002949
v 115.037552 -48.598324 17.002949
v 114.024582 -51.937695 17.002947
v 112.379562 -55.015278 17.002947
v 110.165771 -57.712791 17.002947
v 107.468262 -59.926594 17.002947
v 104.390678 -61.571606 17.002947
v 101.051292 -62.584583 17.002947
vn -0.0000 -0.0000 1.0000
vt 0.751867 0.947538
vt 0.771470 0.946575
vt 0.790885 0.943695
vt 0.809924 0.938926
vt 0.828403 0.932314
vt 0.846146 0.923922
vt 0.862981 0.913832
vt 0.878745 0.902140
vt 0.893288 0.888960
vt 0.906469 0.874417
vt 0.918161 0.858652
vt 0.928251 0.841817
vt 0.936643 0.824075
vt 0.943255 0.805595
vt 0.948024 0.786556
vt 0.950904 0.767142
vt 0.951867 0.747538
vt 0.950904 0.727935
vt 0.948024 0.708520
vt 0.943255 0.689481
vt 0.936643 0.671001
vt 0.928251 0.653259
vt 0.918161 0.636424
vt 0.906469 0.620659
vt 0.893288 0.606117
vt 0.878745 0.592936
vt 0.862981 0.581244
vt 0.846146 0.571154
vt 0.828403 0.562762
vt 0.809924 0.556150
vt 0.790885 0.551381
vt 0.771470 0.548501
vt 0.751867 0.547538
vt 0.732263 0.548501
vt 0.712849 0.551381
vt 0.693810 0.556150
vt 0.675330 0.562762
vt 0.657587 0.571154
vt 0.640753 0.581244
vt 0.624988 0.592936
vt 0.610445 0.606117
vt 0.597265 0.620660
vt 0.585573 0.636424
vt 0.575482 0.653259
vt 0.567091 0.671001
vt 0.560479 0.689481
vt 0.555710 0.708520
vt 0.552830 0.727935
vt 0.551867 0.747538
vt 0.552830 0.767142
vt 0.555710 0.786556
vt 0.560479 0.805595
vt 0.567091 0.824075
vt 0.575482 0.841817
vt 0.585573 0.858652
vt 0.597265 0.874417
vt 0.610445 0.888960
vt 0.624988 0.902140
vt 0.640753 0.913832
vt 0.657587 0.923922
vt 0.675330 0.932314
vt 0.693810 0.938926
vt 0.712849 0.943695
vt 0.732263 0.946575
vt 0.768093 0.910065
vt 0.753685 0.911002
vt 0.783946 0.907692
vt 0.799489 0.903777
vt 0.814574 0.898357
vt 0.829055 0.891484
vt 0.842792 0.883225
vt 0.855654 0.873660
vt 0.867516 0.862879
vt 0.878265 0.850988
vt 0.887796 0.838101
vt 0.896018 0.824341
vt 0.902852 0.809842
vt 0.908232 0.794743
vt 0.912106 0.779189
vt 0.914437 0.763331
vt 0.915202 0.747320
vt 0.914394 0.731311
vt 0.912021 0.715459
vt 0.908105 0.699916
vt 0.902685 0.684831
vt 0.895813 0.670350
vt 0.887554 0.656613
vt 0.877988 0.643751
vt 0.867208 0.631889
vt 0.855317 0.621140
vt 0.842429 0.611609
vt 0.828670 0.603387
vt 0.814171 0.596553
vt 0.799072 0.591173
vt 0.783518 0.587299
vt 0.767659 0.584968
vt 0.751648 0.584203
vt 0.735640 0.585011
vt 0.719788 0.587384
vt 0.704244 0.591300
vt 0.689159 0.596720
vt 0.674679 0.603592
vt 0.660941 0.611851
vt 0.648079 0.621417
vt 0.636217 0.632197
vt 0.625468 0.644088
vt 0.615937 0.656975
vt 0.607715 0.670735
vt 0.600881 0.685234
vt 0.595501 0.700333
vt 0.591627 0.715887
vt 0.589297 0.731746
vt 0.588531 0.747756
vt 0.589339 0.763765
vt 0.591713 0.779617
vt 0.595628 0.795161
vt 0.601048 0.810245
vt 0.607921 0.824726
vt 0.616180 0.838464
vt 0.625745 0.851326
vt 0.636526 0.863188
vt 0.648417 0.873936
vt 0.661304 0.883468
vt 0.675063 0.891690
vt 0.689563 0.898524
vt 0.704662 0.903903
vt 0.718621 0.907596
vt 0.736069 0.910160
vt 0.797353 0.729999
vt 0.753184 0.765086
vt 0.775163 0.747626
vt 0.708342 0.729999
vt 0.708342 0.765086
vt 0.708342 0.747626
vt 0.673071 0.729900
vt 0.674184 0.724010
vt 0.676865 0.716484
vt 0.680272 0.709257
vt 0.684370 0.702399
vt 0.689121 0.695975
vt 0.694478 0.690048
vt 0.700391 0.684675
vt 0.706802 0.679907
vt 0.713649 0.675790
vt 0.720867 0.672365
vt 0.728386 0.669663
vt 0.736133 0.667711
vt 0.744035 0.666528
vt 0.752014 0.666126
vt 0.759995 0.666507
vt 0.767899 0.667669
vt 0.775652 0.669600
vt 0.783178 0.672281
vt 0.790405 0.675688
vt 0.797263 0.679786
vt 0.803687 0.684537
vt 0.809614 0.689894
vt 0.814987 0.695807
vt 0.819755 0.702218
vt 0.823872 0.709065
vt 0.827297 0.716283
vt 0.829999 0.723802
vt 0.831132 0.729900
vt 0.637962 0.729900
vt 0.641954 0.714109
vt 0.645761 0.703468
vt 0.650594 0.693252
vt 0.656404 0.683558
vt 0.663136 0.674480
vt 0.670726 0.666107
vt 0.679100 0.658517
vt 0.688177 0.651785
vt 0.697871 0.645975
vt 0.708087 0.641143
vt 0.718728 0.637335
vt 0.729691 0.634589
vt 0.740870 0.632931
vt 0.752158 0.632376
vt 0.763446 0.632931
vt 0.774625 0.634589
vt 0.785588 0.637335
vt 0.796229 0.641143
vt 0.806445 0.645975
vt 0.816139 0.651785
vt 0.825216 0.658517
vt 0.833590 0.666107
vt 0.841180 0.674480
vt 0.847912 0.683558
vt 0.853722 0.693252
vt 0.858554 0.703468
vt 0.862361 0.714109
vt 0.866353 0.729900
vt 0.673628 0.726955
vt 0.639614 0.722004
vt 0.830565 0.726851
vt 0.864701 0.722004
vt 0.654787 0.810465
vt 0.651314 0.810123
vt 0.647975 0.809110
vt 0.644897 0.807465
vt 0.642200 0.805251
vt 0.639986 0.802554
vt 0.638341 0.799476
vt 0.637328 0.796136
vt 0.636986 0.792664
vt 0.637328 0.789191
vt 0.638341 0.785851
vt 0.639986 0.782774
vt 0.642200 0.780076
vt 0.644897 0.777863
vt 0.647975 0.776218
vt 0.651314 0.775205
vt 0.654787 0.774863
vt 0.658260 0.775205
vt 0.661599 0.776218
vt 0.664677 0.777863
vt 0.667374 0.780076
vt 0.669588 0.782774
vt 0.671233 0.785851
vt 0.672246 0.789191
vt 0.672588 0.792664
vt 0.672246 0.796136
vt 0.671233 0.799476
vt 0.669588 0.802554
vt 0.667374 0.805251
vt 0.664677 0.807465
vt 0.661599 0.809110
vt 0.658260 0.810123
vt 0.849098 0.810465
vt 0.845625 0.810123
vt 0.842285 0.809110
vt 0.839208 0.807465
vt 0.836510 0.805251
vt 0.834297 0.802553
vt 0.832651 0.799476
vt 0.831639 0.796136
vt 0.831297 0.792664
vt 0.831639 0.789191
vt 0.832651 0.785851
vt 0.834297 0.782774
vt 0.836510 0.780076
vt 0.839208 0.777863
vt 0.842285 0.776218
vt 0.845625 0.775205
vt 0.849098 0.774863
vt 0.852570 0.775205
vt 0.855910 0.776218
vt 0.858987 0.777863
vt 0.861685 0.780076
vt 0.863899 0.782774
vt 0.865544 0.785851
vt 0.866557 0.789191
vt 0.866899 0.792664
vt 0.866557 0.796136
vt 0.865544 0.799476
vt 0.863899 0.802553
vt 0.861685 0.805251
vt 0.858987 0.807465
vt 0.855910 0.809110
vt 0.852570 0.810123
s 0
f 66/66/1 1/1/1 2/2/1 65/65/1
f 65/65/1 2/2/1 3/3/1 67/67/1
f 67/67/1 3/3/1 4/4/1 68/68/1
f 68/68/1 4/4/1 5/5/1 69/69/1
f 69/69/1 5/5/1 6/6/1 70/70/1
f 70/70/1 6/6/1 7/7/1 71/71/1
f 71/71/1 7/7/1 8/8/1 72/72/1
f 72/72/1 8/8/1 9/9/1 73/73/1
f 73/73/1 9/9/1 10/10/1 74/74/1
f 74/74/1 10/10/1 11/11/1 75/75/1
f 75/75/1 11/11/1 12/12/1 76/76/1
f 76/76/1 12/12/1 13/13/1 77/77/1
f 77/77/1 13/13/1 14/14/1 78/78/1
f 78/78/1 14/14/1 15/15/1 79/79/1
f 79/79/1 15/15/1 16/16/1 80/80/1
f 80/80/1 16/16/1 17/17/1 81/81/1
f 81/81/1 17/17/1 18/18/1 82/82/1
f 82/82/1 18/18/1 19/19/1 83/83/1
f 83/83/1 19/19/1 20/20/1 84/84/1
f 84/84/1 20/20/1 21/21/1 85/85/1
f 85/85/1 21/21/1 22/22/1 86/86/1
f 86/86/1 22/22/1 23/23/1 87/87/1
f 87/87/1 23/23/1 24/24/1 88/88/1
f 88/88/1 24/24/1 25/25/1 89/89/1
f 89/89/1 25/25/1 26/26/1 90/90/1
f 90/90/1 26/26/1 27/27/1 91/91/1
f 91/91/1 27/27/1 28/28/1 92/92/1
f 92/92/1 28/28/1 29/29/1 93/93/1
f 93/93/1 29/29/1 30/30/1 94/94/1
f 94/94/1 30/30/1 31/31/1 95/95/1
f 95/95/1 31/31/1 32/32/1 96/96/1
f 96/96/1 32/32/1 33/33/1 97/97/1
f 97/97/1 33/33/1 34/34/1 98/98/1
f 98/98/1 34/34/1 35/35/1 99/99/1
f 99/99/1 35/35/1 36/36/1 100/100/1
f 100/100/1 36/36/1 37/37/1 101/101/1
f 101/101/1 37/37/1 38/38/1 102/102/1
f 102/102/1 38/38/1 39/39/1 103/103/1
f 103/103/1 39/39/1 40/40/1 104/104/1
f 104/104/1 40/40/1 41/41/1 105/105/1
f 105/105/1 41/41/1 42/42/1 106/106/1
f 106/106/1 42/42/1 43/43/1 107/107/1
f 107/107/1 43/43/1 44/44/1 108/108/1
f 108/108/1 44/44/1 45/45/1 109/109/1
f 109/109/1 45/45/1 46/46/1 110/110/1
f 110/110/1 46/46/1 47/47/1 111/111/1
f 111/111/1 47/47/1 48/48/1 112/112/1
f 112/112/1 48/48/1 49/49/1 113/113/1
f 113/113/1 49/49/1 50/50/1 114/114/1
f 114/114/1 50/50/1 51/51/1 115/115/1
f 115/115/1 51/51/1 52/52/1 116/116/1
f 116/116/1 52/52/1 53/53/1 117/117/1
f 117/117/1 53/53/1 54/54/1 118/118/1
f 118/118/1 54/54/1 55/55/1 119/119/1
f 119/119/1 55/55/1 56/56/1 120/120/1
f 120/120/1 56/56/1 57/57/1 121/121/1
f 121/121/1 57/57/1 58/58/1 122/122/1
f 122/122/1 58/58/1 59/59/1 123/123/1
f 123/123/1 59/59/1 60/60/1 124/124/1
f 124/124/1 60/60/1 61/61/1 125/125/1
f 125/125/1 61/61/1 62/62/1 126/126/1
f 126/126/1 62/62/1 63/63/1 127/127/1
f 127/127/1 63/63/1 64/64/1 128/128/1
f 128/128/1 64/64/1 1/1/1 66/66/1
f 66/66/1 129/129/1 131/131/1 128/128/1
f 128/128/1 131/131/1 130/130/1 127/127/1
f 129/129/1 132/132/1 134/134/1 131/131/1
f 131/131/1 134/134/1 133/133/1 130/130/1
f 193/193/1 194/194/1 164/164/1 135/135/1
f 137/137/1 166/166/1 165/165/1 136/136/1
f 138/138/1 167/167/1 166/166/1 137/137/1
f 139/139/1 168/168/1 167/167/1 138/138/1
f 140/140/1 169/169/1 168/168/1 139/139/1
f 141/141/1 170/170/1 169/169/1 140/140/1
f 142/142/1 171/171/1 170/170/1 141/141/1
f 143/143/1 172/172/1 171/171/1 142/142/1
f 144/144/1 173/173/1 172/172/1 143/143/1
f 145/145/1 174/174/1 173/173/1 144/144/1
f 146/146/1 175/175/1 174/174/1 145/145/1
f 147/147/1 176/176/1 175/175/1 146/146/1
f 148/148/1 177/177/1 176/176/1 147/147/1
f 149/149/1 178/178/1 177/177/1 148/148/1
f 150/150/1 179/179/1 178/178/1 149/149/1
f 151/151/1 180/180/1 179/179/1 150/150/1
f 152/152/1 181/181/1 180/180/1 151/151/1
f 153/153/1 182/182/1 181/181/1 152/152/1
f 154/154/1 183/183/1 182/182/1 153/153/1
f 155/155/1 184/184/1 183/183/1 154/154/1
f 156/156/1 185/185/1 184/184/1 155/155/1
f 157/157/1 186/186/1 185/185/1 156/156/1
f 158/158/1 187/187/1 186/186/1 157/157/1
f 159/159/1 188/188/1 187/187/1 158/158/1
f 160/160/1 189/189/1 188/188/1 159/159/1
f 161/161/1 190/190/1 189/189/1 160/160/1
f 162/162/1 191/191/1 190/190/1 161/161/1
f 195/195/1 196/196/1 191/191/1 162/162/1
f 136/136/1 165/165/1 194/194/1 193/193/1
f 163/163/1 192/192/1 196/196/1 195/195/1
f 198/198/1 197/197/1 228/228/1 227/227/1 226/226/1 225/225/1 224/224/1 223/223/1 222/222/1 221/221/1 220/220/1 219/219/1 218/218/1 217/217/1 216/216/1 215/215/1 214/214/1 213/213/1 212/212/1 211/211/1 210/210/1 209/209/1 208/208/1 207/207/1 206/206/1 205/205/1 204/204/1 203/203/1 202/202/1 201/201/1 200/200/1 199/199/1
f 230/230/1 229/229/1 260/260/1 259/259/1 258/258/1 257/257/1 256/256/1 255/255/1 254/254/1 253/253/1 252/252/1 251/251/1 250/250/1 249/249/1 248/248/1 247/247/1 246/246/1 245/245/1 244/244/1 243/243/1 242/242/1 241/241/1 240/240/1 239/239/1 238/238/1 237/237/1 236/236/1 235/235/1 234/234/1 233/233/1 232/232/1 231/231/1
